<?xml version="1.0" encoding="iso-8859-1"?>
<!-- Generator: Adobe Illustrator 19.0.0, SVG Export Plug-In . SVG Version: 6.00 Build 0)  -->
<svg version="1.1" id="Layer_1" xmlns="http://www.w3.org/2000/svg" xmlns:xlink="http://www.w3.org/1999/xlink" x="0px" y="0px"
	 viewBox="0 0 512 512" style="enable-background:new 0 0 512 512;" xml:space="preserve">
<g id="sport">
	<g id="boxing">
	</g>
	<g id="judo">
	</g>
	<g id="tennis">
	</g>
	<g id="cup">
	</g>
	<g id="medal">
	</g>
	<g id="skateboard">
	</g>
	<g id="target_with_arrow">
	</g>
	<g id="bing_bong">
	</g>
	<g id="bowling">
	</g>
	<g id="baseball">
	</g>
	<g id="swimming">
	</g>
	<g id="football">
	</g>
	<g id="basketball">
	</g>
	<g id="gym">
	</g>
	<g id="american_football">
	</g>
</g>
<g id="devices">
	<g id="camera">
	</g>
	<g id="apple">
	</g>
	<g id="classic_camera">
	</g>
	<g id="computer">
	</g>
	<g id="ipad">
	</g>
	<g id="iphone">
	</g>
	<g id="printer">
	</g>
	<g id="mp3_player">
	</g>
	<g id="LCD_tivi">
	</g>
	<g id="retro_tivi">
	</g>
	<g id="gamepad">
	</g>
	<g id="ps_vista">
	</g>
	<g id="gameboy">
	</g>
	<g id="bombox">
	</g>
	<g id="playstation">
	</g>
	<g id="laptop">
	</g>
	<g id="smartphone">
	</g>
	<g id="projector">
	</g>
	<g id="imac">
	</g>
	<g id="camera_for_film">
	</g>
</g>
<g id="chemistry_x2F__health">
	<g id="DNA">
	</g>
	<g id="different_kind_of_tubes">
	</g>
	<g id="radioactive">
	</g>
	<g id="monitor">
	</g>
	<g id="first_aid_kit">
	</g>
	<g id="needle">
	</g>
	<g id="microscope">
	</g>
	<g id="plaster">
	</g>
	<g id="experiment">
	</g>
	<g id="pill">
	</g>
	<g id="blood">
	</g>
	<g id="molecular">
	</g>
	<g id="gen">
	</g>
	<g id="t&#xE9;t_tube">
	</g>
	<g id="stethoscope">
	</g>
</g>
<g id="others">
	<g id="book">
	</g>
	<g id="key">
	</g>
	<g id="box">
	</g>
	<g id="bell">
	</g>
	<g id="suitcase">
	</g>
	<g id="chess_game">
	</g>
	<g id="website_with_cretificate">
	</g>
	<g id="spider_with_eye">
	</g>
	<g id="imac_with__x3C__x2F__x3E_">
	</g>
	<g id="macbook_with_graph">
	</g>
	<g id="envelope_with_letter">
	</g>
	<g id="smartphone_with_mail_icon">
	</g>
	<g id="smartphone_with_setting_icon">
	</g>
	<g id="_x2C_aptop_with_setting_icon">
	</g>
	<g id="plant">
	</g>
	<g id="toaster">
	</g>
	<g id="telescope">
	</g>
	<g id="rocket">
	</g>
	<g id="bomb">
	</g>
	<g id="mail_box">
	</g>
</g>
<g id="food">
	<g id="hamburger">
	</g>
	<g id="coffee_take_away">
	</g>
	<g id="cherry">
	</g>
	<g id="strawberry">
	</g>
	<g id="hotdog">
	</g>
	<g id="sushi">
	</g>
	<g id="tea">
	</g>
	<g id="water_with_ice">
	</g>
	<g id="wine">
	</g>
	<g id="coca">
	</g>
	<g id="ice_cream1">
	</g>
	<g id="knife_&#x1B0;ith_fork">
	</g>
	<g id="meat">
	</g>
	<g id="cheese">
	</g>
	<g id="fish">
	</g>
	<g id="carrot">
	</g>
	<g id="tomato">
	</g>
	<g id="beer">
	</g>
	<g id="egg">
	</g>
	<g id="ice_cream2">
	</g>
</g>
<g id="users">
	<g id="male">
	</g>
	<g id="female">
	</g>
	<g id="male_with_chat_box">
	</g>
	<g id="male_with_mail">
	</g>
	<g id="male_with_keyboard">
	</g>
	<g id="male_with_headphone">
	</g>
	<g id="male_with_tearm">
	</g>
	<g id="male_with_plus">
	</g>
	<g id="male_with_minus">
	</g>
	<g id="female_with_magnifier">
	</g>
</g>
<g id="money_x2F_shopping_x2F_b&#xFA;iness">
	<g id="wallet">
	</g>
	<g id="coins">
	</g>
	<g id="laptop_with__x24__x24__x24_">
	</g>
	<g id="smartphone_with__x24_">
	</g>
	<g id="coin_with_clock">
	</g>
	<g id="bag_empty">
	</g>
	<g id="bag_full">
	</g>
	<g id="gift">
	</g>
	<g id="gold_bar">
	</g>
	<g id="hand_with__x24_">
	</g>
	<g id="magnifier_with__x24_">
	</g>
	<g id="megaphone_with__x24_">
	</g>
	<g id="piggy_bank">
	</g>
	<g id="calculator">
	</g>
	<g id="bag_with__x24_">
	</g>
	<g id="safe">
	</g>
	<g id="man_with__x24_">
	</g>
	<g id="credit_card">
	</g>
	<g id="tree_with__x24_">
	</g>
	<g id="balance_with__x24_">
	</g>
</g>
<g id="season">
	<g id="spring">
	</g>
	<g id="summer">
	</g>
	<g id="autumn">
	</g>
	<g id="winter">
	</g>
	<g id="cloud_with_rain">
	</g>
	<g id="sun_with_cloud">
		<g>
			<circle style="fill:#1669AD;" cx="256" cy="256" r="256"/>
			<circle style="fill:#2A81C2;" cx="256" cy="256.001" r="203.503"/>
			<g>
				<path style="fill:#1669AD;" d="M423.437,218.706c0.023-0.459,0.035-0.92,0.035-1.387c0-5.593-1.641-10.8-4.459-15.179
					c-0.023-0.035-0.047-0.072-0.07-0.107c-0.652-1.002-1.363-1.959-2.133-2.867c-0.027-0.031-0.053-0.061-0.08-0.092
					c-0.359-0.42-0.73-0.83-1.115-1.229c-0.035-0.037-0.072-0.075-0.107-0.113c-0.814-0.835-1.678-1.62-2.59-2.348
					c-0.068-0.056-0.139-0.11-0.209-0.164c-0.402-0.316-0.813-0.622-1.232-0.916c-0.059-0.041-0.117-0.084-0.176-0.125
					c-0.48-0.332-0.971-0.651-1.473-0.951c-0.025-0.016-0.053-0.03-0.08-0.046c-0.453-0.271-0.918-0.526-1.387-0.772
					c-0.115-0.061-0.23-0.12-0.348-0.178c-0.436-0.219-0.877-0.428-1.324-0.626c-0.076-0.034-0.152-0.07-0.229-0.103
					c-0.523-0.225-1.053-0.434-1.592-0.626c-0.104-0.038-0.209-0.071-0.314-0.107c-0.434-0.149-0.873-0.289-1.316-0.417
					c-0.15-0.044-0.303-0.088-0.455-0.13c-0.48-0.13-0.967-0.25-1.459-0.356c-0.07-0.015-0.141-0.034-0.211-0.048
					c-0.557-0.117-1.121-0.212-1.689-0.294c-0.152-0.021-0.305-0.038-0.457-0.058c-0.438-0.055-0.877-0.101-1.32-0.137
					c-0.168-0.013-0.334-0.027-0.502-0.038c-0.584-0.036-1.17-0.061-1.762-0.061c-2.859,0-5.615,0.43-8.215,1.223
					c-7.559-8.117-18.338-13.196-30.305-13.196c-1.732,0-3.434,0.126-5.109,0.332l7.621-28.443l-35.922,9.626l20.549,20.548
					c-1.969,0.644-3.873,1.425-5.699,2.343c-14.766-17.557-35.865-29.608-59.783-32.623l0,0c-0.01-0.001-0.02-0.001-0.029-0.003
					c-0.885-0.111-1.775-0.207-2.668-0.292c-0.225-0.024-0.451-0.042-0.678-0.061c-0.686-0.063-1.371-0.116-2.059-0.162
					c-0.277-0.02-0.553-0.037-0.83-0.053c-0.666-0.039-1.334-0.07-2.004-0.096c-0.264-0.01-0.525-0.021-0.791-0.029
					c-0.914-0.028-1.834-0.044-2.756-0.044c-51.646,0-93.516,41.87-93.516,93.517c0,4.955,0.389,9.82,1.131,14.566
					c-2.234,1.077-4.389,2.287-6.463,3.613v-36.774l-32.207,18.595l31.865,18.399c-8.883,5.766-16.193,13.751-21.135,23.178
					c-2.504-0.637-5.125-0.976-7.828-0.976c-17.451,0-31.605,14.126-31.648,31.569c-19.625,15.996-31.499,36.853-31.499,59.666
					c0,0.357,0.024,0.712,0.063,1.068c0.012,0.107,0.029,0.213,0.045,0.32c0.035,0.254,0.079,0.508,0.134,0.76
					c0.024,0.114,0.05,0.228,0.079,0.341c0.068,0.273,0.149,0.546,0.24,0.818c0.026,0.078,0.048,0.157,0.076,0.235
					c0.127,0.354,0.272,0.708,0.438,1.06c0.021,0.044,0.047,0.089,0.068,0.133c0.148,0.307,0.311,0.61,0.486,0.914
					c0.051,0.088,0.105,0.175,0.158,0.263c0.168,0.276,0.347,0.549,0.537,0.823c0.052,0.075,0.102,0.149,0.156,0.224
					c0.508,0.704,1.09,1.402,1.746,2.091c0.029,0.03,0.061,0.061,0.09,0.09c0.304,0.315,0.624,0.629,0.958,0.94
					c0.053,0.049,0.106,0.099,0.161,0.149c0.354,0.324,0.722,0.647,1.108,0.968c0.013,0.011,0.024,0.021,0.037,0.031
					c0.845,0.699,1.767,1.388,2.762,2.067c0.014,0.009,0.027,0.018,0.041,0.028c0.486,0.33,0.99,0.66,1.512,0.985
					c0.016,0.009,0.029,0.019,0.045,0.028c20.051,12.509,65.531,21.242,118.436,21.242c71.453,0,129.375-15.928,129.375-35.578
					c0-18.622-7.916-35.94-21.5-50.375c16.119-9.113,29.262-22.867,37.615-39.451c2.992,0.085,6.029,0.129,9.104,0.129
					c47.973,0,86.861-10.694,86.861-23.886C446.235,244.124,437.593,229.604,423.437,218.706z"/>
				<polygon style="fill:#1669AD;" points="266.704,110.76 248.11,142.967 285.3,142.967 				"/>
				<polygon style="fill:#1669AD;" points="359.374,334.485 349.749,298.562 323.452,324.86 				"/>
				<polygon style="fill:#1669AD;" points="209.958,158.77 174.034,149.144 183.659,185.067 				"/>
			</g>
			<g>
				<g>
					<path style="fill:#CDCCCA;" d="M436.147,207.03c0.021-0.46,0.035-0.921,0.035-1.387c0-15.514-12.578-28.09-28.092-28.09
						c-2.857,0-5.613,0.43-8.213,1.223c-7.559-8.116-18.338-13.196-30.307-13.196c-15.939,0-29.775,9.01-36.695,22.215
						c-1.682-0.428-3.441-0.657-5.256-0.657c-11.717,0-21.219,9.485-21.248,21.197c-13.176,10.739-21.148,24.743-21.148,40.058
						c0,13.192,38.889,23.885,86.861,23.885c47.971,0,86.859-10.693,86.859-23.885C458.944,232.448,450.304,217.927,436.147,207.03z
						"/>
					<g>
						<path style="fill:#E8E9EC;" d="M296.104,259.273c0-15.316,7.973-29.319,21.148-40.059
							c0.029-11.711,9.531-21.195,21.248-21.195c1.814,0,3.574,0.227,5.256,0.655c6.92-13.204,20.756-22.215,36.697-22.215
							c11.967,0,22.746,5.079,30.305,13.197c2.6-0.794,5.355-1.224,8.213-1.224c4.961,0,9.619,1.29,13.664,3.547
							c-4.801-8.606-13.99-14.429-24.545-14.429c-2.857,0-5.613,0.43-8.213,1.223c-7.559-8.116-18.338-13.196-30.307-13.196
							c-15.939,0-29.775,9.01-36.695,22.215c-1.682-0.428-3.441-0.657-5.256-0.657c-11.717,0-21.219,9.485-21.248,21.197
							c-13.176,10.739-21.148,24.743-21.148,40.058c0,4.211,3.967,8.166,10.924,11.602
							C296.122,259.755,296.104,259.515,296.104,259.273z"/>
					</g>
				</g>
				<g>
					<circle style="fill:#E65439;" cx="279.414" cy="230.139" r="93.517"/>
					<circle style="fill:#BE3D27;" cx="279.414" cy="230.139" r="93.517"/>
					<path style="fill:#E65439;" d="M209.528,230.139c0-47.646,35.631-86.968,81.701-92.777c-3.869-0.485-7.813-0.74-11.814-0.74
						c-51.648,0-93.518,41.87-93.518,93.517s41.869,93.516,93.518,93.516c4.002,0,7.945-0.253,11.814-0.74
						C245.159,317.106,209.528,277.784,209.528,230.139z"/>
					<g>
						<g>
							<polygon style="fill:#E65439;" points="260.819,131.29 279.415,99.083 298.009,131.29 							"/>
							<polygon style="fill:#E65439;" points="260.819,328.987 279.415,361.194 298.009,328.987 							"/>
						</g>
						<g>
							<polygon style="fill:#E65439;" points="378.263,211.544 410.47,230.139 378.263,248.733 							"/>
							<polygon style="fill:#E65439;" points="180.565,211.544 148.358,230.139 180.565,248.733 							"/>
						</g>
						<g>
							<polygon style="fill:#E65439;" points="378.263,211.544 410.47,230.139 378.263,248.733 							"/>
							<polygon style="fill:#E65439;" points="180.565,211.544 148.358,230.139 180.565,248.733 							"/>
						</g>
						<g>
							<polygon style="fill:#E65439;" points="336.161,147.094 372.085,137.468 362.46,173.39 							"/>
							<polygon style="fill:#E65439;" points="196.37,286.886 186.745,322.809 222.667,313.184 							"/>
						</g>
						<g>
							<polygon style="fill:#E65439;" points="362.46,286.886 372.085,322.809 336.161,313.184 							"/>
							<polygon style="fill:#E65439;" points="222.667,147.094 186.745,137.468 196.37,173.39 							"/>
						</g>
					</g>
				</g>
				<g>
					<path style="fill:#CDCCCA;" d="M312.909,300.366c0.033-0.684,0.053-1.371,0.053-2.064c0-23.108-18.732-41.839-41.84-41.839
						c-4.258,0-8.363,0.64-12.234,1.822c-11.258-12.091-27.314-19.656-45.139-19.656c-23.744,0-44.352,13.42-54.658,33.088
						c-2.504-0.637-5.127-0.977-7.828-0.977c-17.453,0-31.605,14.127-31.65,31.571c-19.625,15.995-31.498,36.852-31.498,59.666
						c0,19.648,57.924,35.577,129.375,35.577c71.453,0,129.377-15.929,129.377-35.577
						C346.866,338.227,333.995,316.599,312.909,300.366z"/>
					<g>
						<path style="fill:#E8E9EC;" d="M104.321,378.183c0-22.813,11.873-43.67,31.498-59.666
							c0.045-17.443,14.197-31.571,31.648-31.571c2.703,0,5.326,0.34,7.828,0.977c10.309-19.666,30.916-33.088,54.66-33.088
							c17.824,0,33.881,7.564,45.139,19.657c3.871-1.182,7.977-1.823,12.234-1.823c7.389,0,14.324,1.922,20.35,5.285
							c-7.15-12.818-20.838-21.491-36.557-21.491c-4.258,0-8.363,0.64-12.234,1.822c-11.258-12.091-27.314-19.656-45.139-19.656
							c-23.744,0-44.352,13.42-54.658,33.088c-2.504-0.637-5.127-0.977-7.828-0.977c-17.453,0-31.605,14.127-31.65,31.571
							c-19.625,15.995-31.498,36.852-31.498,59.666c0,6.271,5.91,12.164,16.27,17.28
							C104.347,378.899,104.321,378.542,104.321,378.183z"/>
					</g>
				</g>
			</g>
		</g>
	</g>
	<g id="cloud_with_lightning">
	</g>
	<g id="cloud_with_snow">
	</g>
	<g id="snow">
	</g>
	<g id="moon">
	</g>
</g>
<g id="landscape">
	<g id="mountain">
	</g>
	<g id="desert">
	</g>
	<g id="island">
	</g>
	<g id="sea">
	</g>
	<g id="water_fall">
	</g>
	<g id="lighthouse">
	</g>
	<g id="forest">
	</g>
	<g id="city">
	</g>
	<g id="arctic">
	</g>
	<g id="road">
	</g>
</g>
<g id="creative_x2F_design">
	<g id="pallete">
	</g>
	<g id="bucket">
	</g>
	<g id="cup_with_pen">
	</g>
	<g id="pencil">
	</g>
	<g id="wacom">
	</g>
	<g id="ruler">
	</g>
	<g id="pen">
	</g>
	<g id="rollet_paper">
	</g>
	<g id="colors">
	</g>
	<g id="light_bulb">
	</g>
	<g id="standee_for_painter">
	</g>
	<g id="vector_with_arrow">
	</g>
	<g id="spray_paint">
	</g>
	<g id="adobe_illustrator">
	</g>
	<g id="adobe_ph&#x1ED1;thop">
	</g>
	<g id="&#x1EBB;aser">
	</g>
	<g id="paint_brush">
	</g>
	<g id="sketbook_with_pencil">
	</g>
	<g id="picture_frame">
	</g>
	<g id="compa">
	</g>
</g>
<g>
</g>
<g>
</g>
<g>
</g>
<g>
</g>
<g>
</g>
<g>
</g>
<g>
</g>
<g>
</g>
<g>
</g>
<g>
</g>
<g>
</g>
<g>
</g>
<g>
</g>
<g>
</g>
<g>
</g>
</svg>
